<svg width="512" height="512" viewBox="0 0 512 512" fill="none" xmlns="http://www.w3.org/2000/svg">
<rect width="512" height="512" rx="256" fill="#202225"/>
<path d="M180.033 287.96C177.217 287.96 174.401 287.736 171.585 287.288C168.769 286.904 166.113 286.296 163.617 285.464C161.121 284.568 158.881 283.48 156.897 282.2C155.745 281.432 154.945 280.504 154.497 279.416C154.049 278.328 153.889 277.272 154.017 276.248C154.209 275.16 154.625 274.232 155.265 273.464C155.969 272.632 156.833 272.12 157.857 271.928C158.881 271.736 160.001 272.024 161.217 272.792C164.033 274.456 167.009 275.672 170.145 276.44C173.281 277.208 176.577 277.592 180.033 277.592C185.089 277.592 188.769 276.76 191.073 275.096C193.377 273.368 194.529 271.16 194.529 268.472C194.529 266.232 193.697 264.472 192.033 263.192C190.433 261.912 187.649 260.856 183.681 260.024L173.121 257.816C167.041 256.536 162.497 254.392 159.489 251.384C156.545 248.312 155.073 244.28 155.073 239.288C155.073 236.152 155.713 233.304 156.993 230.744C158.273 228.184 160.065 225.976 162.369 224.12C164.737 222.264 167.521 220.856 170.721 219.896C173.985 218.872 177.569 218.36 181.473 218.36C185.313 218.36 188.961 218.84 192.417 219.8C195.873 220.76 198.977 222.168 201.729 224.024C202.753 224.728 203.425 225.592 203.745 226.616C204.129 227.64 204.225 228.664 204.033 229.688C203.841 230.648 203.393 231.48 202.689 232.184C201.985 232.888 201.089 233.304 200 233.432C198.977 233.56 197.793 233.24 196.449 232.472C194.081 231.128 191.681 230.168 189.249 229.592C186.817 229.016 184.193 228.728 181.377 228.728C178.433 228.728 175.905 229.144 173.793 229.976C171.681 230.808 170.049 231.992 168.897 233.528C167.809 235 167.265 236.76 167.265 238.808C167.265 241.112 168.033 242.968 169.569 244.376C171.105 245.72 173.729 246.776 177.441 247.544L187.905 249.752C194.241 251.096 198.945 253.208 202.017 256.088C205.153 258.968 206.721 262.808 206.721 267.608C206.721 270.68 206.081 273.464 204.801 275.96C203.585 278.456 201.793 280.6 199.425 282.392C197.121 284.184 194.337 285.56 191.073 286.52C187.809 287.48 184.129 287.96 180.033 287.96ZM227.269 305.048C225.861 305.048 224.709 304.664 223.813 303.896C222.917 303.192 222.373 302.232 222.181 301.016C222.053 299.8 222.277 298.52 222.853 297.176L229.381 282.68V287.672L211.909 247.256C211.333 245.848 211.141 244.536 211.333 243.32C211.525 242.104 212.101 241.144 213.061 240.44C214.085 239.672 215.461 239.288 217.189 239.288C218.661 239.288 219.845 239.64 220.741 240.344C221.637 240.984 222.437 242.232 223.141 244.088L236.101 276.44H233.221L246.469 243.992C247.173 242.2 248.005 240.984 248.965 240.344C249.925 239.64 251.205 239.288 252.805 239.288C254.213 239.288 255.333 239.672 256.165 240.44C256.997 241.144 257.509 242.104 257.701 243.32C257.893 244.472 257.669 245.752 257.029 247.16L233.701 300.44C232.869 302.232 231.973 303.448 231.013 304.088C230.053 304.728 228.805 305.048 227.269 305.048ZM271.848 287.768C269.928 287.768 268.456 287.256 267.432 286.232C266.408 285.144 265.896 283.608 265.896 281.624V245.336C265.896 243.352 266.408 241.848 267.432 240.824C268.456 239.8 269.896 239.288 271.752 239.288C273.608 239.288 275.048 239.8 276.072 240.824C277.096 241.848 277.608 243.352 277.608 245.336V251.864L276.552 249.464C277.96 246.072 280.136 243.512 283.08 241.784C286.088 239.992 289.48 239.096 293.256 239.096C297.032 239.096 300.136 239.8 302.568 241.208C305 242.616 306.824 244.76 308.04 247.64C309.256 250.456 309.864 254.04 309.864 258.392V281.624C309.864 283.608 309.352 285.144 308.328 286.232C307.304 287.256 305.832 287.768 303.912 287.768C301.992 287.768 300.488 287.256 299.4 286.232C298.376 285.144 297.864 283.608 297.864 281.624V258.968C297.864 255.32 297.16 252.664 295.752 251C294.408 249.336 292.296 248.504 289.416 248.504C285.896 248.504 283.08 249.624 280.968 251.864C278.92 254.04 277.896 256.952 277.896 260.6V281.624C277.896 285.72 275.88 287.768 271.848 287.768ZM339.237 287.96C336.485 287.96 333.573 287.672 330.501 287.096C327.429 286.52 324.677 285.528 322.245 284.12C321.221 283.48 320.485 282.744 320.037 281.912C319.653 281.016 319.493 280.152 319.557 279.32C319.685 278.424 320.005 277.656 320.517 277.016C321.093 276.376 321.797 275.96 322.629 275.768C323.525 275.576 324.485 275.736 325.509 276.248C328.069 277.464 330.469 278.328 332.709 278.84C334.949 279.288 337.157 279.512 339.333 279.512C342.405 279.512 344.677 279 346.149 277.976C347.685 276.888 348.453 275.48 348.453 273.752C348.453 272.28 347.941 271.16 346.917 270.392C345.957 269.56 344.485 268.952 342.501 268.568L332.901 266.744C328.933 265.976 325.893 264.536 323.781 262.424C321.733 260.248 320.709 257.464 320.709 254.072C320.709 251 321.541 248.344 323.205 246.104C324.933 243.864 327.301 242.136 330.309 240.92C333.317 239.704 336.773 239.096 340.677 239.096C343.493 239.096 346.117 239.416 348.549 240.056C351.045 240.632 353.445 241.56 355.749 242.84C356.709 243.352 357.349 244.024 357.669 244.856C358.053 245.688 358.149 246.552 357.957 247.448C357.765 248.28 357.381 249.048 356.805 249.752C356.229 250.392 355.493 250.808 354.597 251C353.765 251.128 352.805 250.936 351.717 250.424C349.733 249.4 347.813 248.664 345.957 248.216C344.165 247.768 342.437 247.544 340.773 247.544C337.637 247.544 335.301 248.088 333.765 249.176C332.293 250.264 331.557 251.704 331.557 253.496C331.557 254.84 332.005 255.96 332.901 256.856C333.797 257.752 335.173 258.36 337.029 258.68L346.629 260.504C350.789 261.272 353.925 262.68 356.037 264.728C358.213 266.776 359.301 269.528 359.301 272.984C359.301 277.656 357.477 281.336 353.829 284.024C350.181 286.648 345.317 287.96 339.237 287.96Z" fill="#EEE5E9"/>
</svg>
