<svg width="512" height="512" viewBox="0 0 512 512" fill="none" xmlns="http://www.w3.org/2000/svg">
<rect width="512" height="512" rx="256" fill="#E0E8F0"/>
<path d="M179.033 287.96C176.217 287.96 173.401 287.736 170.585 287.288C167.769 286.904 165.113 286.296 162.617 285.464C160.121 284.568 157.881 283.48 155.897 282.2C154.745 281.432 153.945 280.504 153.497 279.416C153.049 278.328 152.889 277.272 153.017 276.248C153.209 275.16 153.625 274.232 154.265 273.464C154.969 272.632 155.833 272.12 156.857 271.928C157.881 271.736 159.001 272.024 160.217 272.792C163.033 274.456 166.009 275.672 169.145 276.44C172.281 277.208 175.577 277.592 179.033 277.592C184.089 277.592 187.769 276.76 190.073 275.096C192.377 273.368 193.529 271.16 193.529 268.472C193.529 266.232 192.697 264.472 191.033 263.192C189.433 261.912 186.649 260.856 182.681 260.024L172.121 257.816C166.041 256.536 161.497 254.392 158.489 251.384C155.545 248.312 154.073 244.28 154.073 239.288C154.073 236.152 154.713 233.304 155.993 230.744C157.273 228.184 159.065 225.976 161.369 224.12C163.737 222.264 166.521 220.856 169.721 219.896C172.985 218.872 176.569 218.36 180.473 218.36C184.313 218.36 187.961 218.84 191.417 219.8C194.873 220.76 197.977 222.168 200.729 224.024C201.753 224.728 202.425 225.592 202.745 226.616C203.129 227.64 203.225 228.664 203.033 229.688C202.841 230.648 202.393 231.48 201.689 232.184C200.985 232.888 200.089 233.304 199 233.432C197.977 233.56 196.793 233.24 195.449 232.472C193.081 231.128 190.681 230.168 188.249 229.592C185.817 229.016 183.193 228.728 180.377 228.728C177.433 228.728 174.905 229.144 172.793 229.976C170.681 230.808 169.049 231.992 167.897 233.528C166.809 235 166.265 236.76 166.265 238.808C166.265 241.112 167.033 242.968 168.569 244.376C170.105 245.72 172.729 246.776 176.441 247.544L186.905 249.752C193.241 251.096 197.945 253.208 201.017 256.088C204.153 258.968 205.721 262.808 205.721 267.608C205.721 270.68 205.081 273.464 203.801 275.96C202.585 278.456 200.793 280.6 198.425 282.392C196.121 284.184 193.337 285.56 190.073 286.52C186.809 287.48 183.129 287.96 179.033 287.96ZM226.269 305.048C224.861 305.048 223.709 304.664 222.813 303.896C221.917 303.192 221.373 302.232 221.181 301.016C221.053 299.8 221.277 298.52 221.853 297.176L228.381 282.68V287.672L210.909 247.256C210.333 245.848 210.141 244.536 210.333 243.32C210.525 242.104 211.101 241.144 212.061 240.44C213.085 239.672 214.461 239.288 216.189 239.288C217.661 239.288 218.845 239.64 219.741 240.344C220.637 240.984 221.437 242.232 222.141 244.088L235.101 276.44H232.221L245.469 243.992C246.173 242.2 247.005 240.984 247.965 240.344C248.925 239.64 250.205 239.288 251.805 239.288C253.213 239.288 254.333 239.672 255.165 240.44C255.997 241.144 256.509 242.104 256.701 243.32C256.893 244.472 256.669 245.752 256.029 247.16L232.701 300.44C231.869 302.232 230.973 303.448 230.013 304.088C229.053 304.728 227.805 305.048 226.269 305.048ZM270.848 287.768C268.928 287.768 267.456 287.256 266.432 286.232C265.408 285.144 264.896 283.608 264.896 281.624V245.336C264.896 243.352 265.408 241.848 266.432 240.824C267.456 239.8 268.896 239.288 270.752 239.288C272.608 239.288 274.048 239.8 275.072 240.824C276.096 241.848 276.608 243.352 276.608 245.336V251.864L275.552 249.464C276.96 246.072 279.136 243.512 282.08 241.784C285.088 239.992 288.48 239.096 292.256 239.096C296.032 239.096 299.136 239.8 301.568 241.208C304 242.616 305.824 244.76 307.04 247.64C308.256 250.456 308.864 254.04 308.864 258.392V281.624C308.864 283.608 308.352 285.144 307.328 286.232C306.304 287.256 304.832 287.768 302.912 287.768C300.992 287.768 299.488 287.256 298.4 286.232C297.376 285.144 296.864 283.608 296.864 281.624V258.968C296.864 255.32 296.16 252.664 294.752 251C293.408 249.336 291.296 248.504 288.416 248.504C284.896 248.504 282.08 249.624 279.968 251.864C277.92 254.04 276.896 256.952 276.896 260.6V281.624C276.896 285.72 274.88 287.768 270.848 287.768ZM338.237 287.96C335.485 287.96 332.573 287.672 329.501 287.096C326.429 286.52 323.677 285.528 321.245 284.12C320.221 283.48 319.485 282.744 319.037 281.912C318.653 281.016 318.493 280.152 318.557 279.32C318.685 278.424 319.005 277.656 319.517 277.016C320.093 276.376 320.797 275.96 321.629 275.768C322.525 275.576 323.485 275.736 324.509 276.248C327.069 277.464 329.469 278.328 331.709 278.84C333.949 279.288 336.157 279.512 338.333 279.512C341.405 279.512 343.677 279 345.149 277.976C346.685 276.888 347.453 275.48 347.453 273.752C347.453 272.28 346.941 271.16 345.917 270.392C344.957 269.56 343.485 268.952 341.501 268.568L331.901 266.744C327.933 265.976 324.893 264.536 322.781 262.424C320.733 260.248 319.709 257.464 319.709 254.072C319.709 251 320.541 248.344 322.205 246.104C323.933 243.864 326.301 242.136 329.309 240.92C332.317 239.704 335.773 239.096 339.677 239.096C342.493 239.096 345.117 239.416 347.549 240.056C350.045 240.632 352.445 241.56 354.749 242.84C355.709 243.352 356.349 244.024 356.669 244.856C357.053 245.688 357.149 246.552 356.957 247.448C356.765 248.28 356.381 249.048 355.805 249.752C355.229 250.392 354.493 250.808 353.597 251C352.765 251.128 351.805 250.936 350.717 250.424C348.733 249.4 346.813 248.664 344.957 248.216C343.165 247.768 341.437 247.544 339.773 247.544C336.637 247.544 334.301 248.088 332.765 249.176C331.293 250.264 330.557 251.704 330.557 253.496C330.557 254.84 331.005 255.96 331.901 256.856C332.797 257.752 334.173 258.36 336.029 258.68L345.629 260.504C349.789 261.272 352.925 262.68 355.037 264.728C357.213 266.776 358.301 269.528 358.301 272.984C358.301 277.656 356.477 281.336 352.829 284.024C349.181 286.648 344.317 287.96 338.237 287.96Z" fill="#415175"/>
</svg>
